<?xml version="1.0" encoding="UTF-8"?>
<svg width="18px" height="28px" viewBox="0 0 18 28" version="1.1" xmlns="http://www.w3.org/2000/svg" xmlns:xlink="http://www.w3.org/1999/xlink">
    <title>bolt-icon</title>
    <g id="Symbols" stroke="none" stroke-width="1" fill="none" fill-rule="evenodd">
        <g id="nav-projects" transform="translate(-1074.000000, -20.000000)" fill="#647291" fill-rule="nonzero">
            <g id="Group-Copy" transform="translate(1059.000000, 7.000000)">
                <g id="light-bolt" transform="translate(15.000000, 13.000000)">
                    <path d="M17.8847438,10.9256764 C17.7256688,10.6502066 17.4255188,10.4795322 17.0998875,10.4795322 L10.8781875,10.4795322 L11.6969063,0.945996101 C11.7311625,0.546900585 11.4811313,0.176405458 11.090475,0.0472124756 C10.7015625,-0.0828538012 10.2687188,0.0626042885 10.0445625,0.399040936 L0.144675,15.2448811 C-0.03465,15.5135283 -0.0482625,15.8558596 0.10951875,16.1368421 C0.2673,16.4178246 0.5704875,16.5925926 0.90005625,16.5925926 L7.12794375,16.5925926 L6.30264375,27.005154 C6.27058125,27.4076881 6.52719375,27.7791111 6.9231375,27.9032281 C7.01454375,27.9317739 7.10769375,27.9454737 7.2,27.9454737 C7.50673125,27.9454737 7.80114375,27.7924288 7.96815,27.5276023 L17.8680375,11.8084133 C18.0376875,11.5389474 18.0442688,11.2011462 17.8847438,10.9256764 Z" id="Shape"></path>
                </g>
            </g>
        </g>
    </g>
</svg>