<?xml version="1.0" encoding="utf-8"?>
<!-- Generator: Adobe Illustrator 24.1.2, SVG Export Plug-In . SVG Version: 6.00 Build 0)  -->
<svg version="1.1" id="Layer_1" xmlns="http://www.w3.org/2000/svg" xmlns:xlink="http://www.w3.org/1999/xlink" x="0px" y="0px"
	 viewBox="0 0 21 22" style="enable-background:new 0 0 21 22;" xml:space="preserve">
<style type="text/css">
	.st0{fill:url(#SVGID_1_);}
	.st1{fill:url(#SVGID_2_);}
</style>
<g>
	<linearGradient id="SVGID_1_" gradientUnits="userSpaceOnUse" x1="0" y1="14.5" x2="14" y2="14.5">
		<stop  offset="0" style="stop-color:#FF3B70"/>
		<stop  offset="1" style="stop-color:#FF8057"/>
	</linearGradient>
	<path class="st0" d="M6,12V7H4c-2.2,0-4,1.8-4,4v7c0,2.2,1.8,4,4,4h6c2.2,0,4-1.8,4-4v-2h-4C7.8,16,6,14.2,6,12z"/>
	<linearGradient id="SVGID_2_" gradientUnits="userSpaceOnUse" x1="7" y1="7.5" x2="21" y2="7.5">
		<stop  offset="0" style="stop-color:#FF3B70"/>
		<stop  offset="1" style="stop-color:#FF8057"/>
	</linearGradient>
	<path class="st1" d="M17,0h-6C8.8,0,7,1.8,7,4v7c0,2.2,1.8,4,4,4h6c2.2,0,4-1.8,4-4V4C21,1.8,19.2,0,17,0z"/>
</g>
</svg>
