<?xml version="1.0" encoding="utf-8"?>
<!-- Generator: Adobe Illustrator 24.1.2, SVG Export Plug-In . SVG Version: 6.00 Build 0)  -->
<svg version="1.1" id="Layer_1" xmlns="http://www.w3.org/2000/svg" xmlns:xlink="http://www.w3.org/1999/xlink" x="0px" y="0px"
	 viewBox="0 0 7 7" style="enable-background:new 0 0 7 7;" xml:space="preserve">
<style type="text/css">
	.st0{fill:#171C27;}
</style>
<path id="Symbols" class="st0" d="M5.5,6.9C5.2,6.9,5,6.8,4.8,6.6L0.3,1.7c-0.4-0.4-0.3-1,0.1-1.4s1-0.3,1.4,0.1l4.5,4.9
	c0.4,0.4,0.3,1-0.1,1.4C6,6.8,5.7,6.9,5.5,6.9z M1,7C0.7,7,0.5,6.9,0.3,6.7c-0.4-0.4-0.4-1,0-1.4l5-5c0.4-0.4,1-0.4,1.4,0
	s0.4,1,0,1.4l-5,5C1.5,6.9,1.3,7,1,7z"/>
</svg>
