<?xml version="1.0" encoding="UTF-8"?>
<svg width="512px" height="512px" viewBox="0 0 512 512" version="1.1" xmlns="http://www.w3.org/2000/svg" xmlns:xlink="http://www.w3.org/1999/xlink">
    <title>history-icon</title>
    <g id="history-icon" stroke="none" stroke-width="1" fill="none" fill-rule="evenodd">
        <g id="time" fill="#647291" fill-rule="nonzero">
            <path d="M256,0 C115.390625,0 0,115.390625 0,256 C0,396.609375 115.390625,512 256,512 C300.796875,512 344.902344,500.164062 383.527344,477.765625 L368.46875,451.808594 C334.414062,471.554688 295.519531,482 256,482 C131.929688,482 30,380.070312 30,256 C30,131.929688 131.929688,30 256,30 C380.070312,30 482,131.929688 482,256 C482,295.902344 471.558594,334.867188 452,368.71875 L452,332 L422,332 L422,422 L512,422 L512,392 L472.976562,392 C498.171875,351.671875 512,303.777344 512,256 C512,115.390625 396.609375,0 256,0 Z" id="Path"></path>
            <path d="M256,90 C165.019531,90 90,165.019531 90,256 C90,346.980469 165.019531,422 256,422 C346.980469,422 422,346.980469 422,256 C422,165.019531 346.980469,90 256,90 Z M361,271 L241,271 L241,150 L271,150 L271,241 L361,241 L361,271 Z" id="Shape"></path>
        </g>
    </g>
</svg>