<?xml version="1.0" encoding="UTF-8"?>
<svg width="26px" height="19px" viewBox="0 0 26 19" version="1.1" xmlns="http://www.w3.org/2000/svg" xmlns:xlink="http://www.w3.org/1999/xlink">
    <title>home-icon</title>
    <g id="Symbols" stroke="none" stroke-width="1" fill="none" fill-rule="evenodd">
        <g id="nav-projects" transform="translate(-207.000000, -24.000000)" fill="#647291">
            <g id="home-icon" transform="translate(207.000000, 24.000000)">
                <path d="M12.9998358,4 L4.01576125,10.9434611 C4.01576125,10.9532605 4.01313437,10.9676774 4.00788062,10.9873275 C4.00273633,11.0068237 4,11.020984 4,11.03104 L4,18.0620286 C4,18.3158894 4.09900033,18.5358884 4.29694626,18.7211534 C4.49483746,18.906521 4.72917655,18.9997948 5.00001824,18.9997948 L10.9996899,18.9997948 L10.9996899,13.3748397 L15.0000365,13.3748397 L15.0000365,19 L20.9996534,19 C21.2704404,19 21.5051078,18.9069314 21.7027254,18.7211534 C21.9006713,18.5360936 22,18.3159407 22,18.0620286 L22,11.03104 C22,10.9920476 21.9943084,10.9625981 21.9842388,10.9434611 L12.9998358,4 Z" id="Path"></path>
                <path d="M25.8206591,9.93217115 L22.2890914,7.0399726 L22.2890914,0.556320474 C22.2890914,0.408098221 22.2407401,0.286203089 22.1436985,0.190802059 C22.0474477,0.0955123495 21.9237451,0.0478674945 21.7729862,0.0478674945 L18.6766934,0.0478674945 C18.5261039,0.0478674945 18.4024578,0.0955123495 18.3055857,0.190802059 C18.2089395,0.286203089 18.1606446,0.40815388 18.1606446,0.556320474 L18.1606446,3.65507282 L14.2257726,0.413163269 C13.8821167,0.137702536 13.4735027,0 13.0003827,0 C12.5273192,0 12.1187617,0.137702536 11.7747668,0.413163269 L0.179202543,9.93217115 C0.0717112076,10.0167742 0.012797144,10.1306543 0.00183901519,10.2737002 C-0.00906262841,10.4166347 0.0285000296,10.5414798 0.11463996,10.6473449 L1.11448449,11.8233268 C1.20062442,11.9186165 1.31336887,11.9768924 1.45316974,11.9982101 C1.58223843,12.0088968 1.71130711,11.971716 1.84037579,11.8870017 L13.0000438,2.71748219 L24.1598248,11.886946 C24.2460212,11.9608624 24.3587092,11.9977649 24.49851,11.9977649 L24.5469743,11.9977649 C24.6865493,11.9768367 24.7990678,11.9181712 24.8856596,11.8231042 L25.8856171,10.6472893 C25.9715876,10.5412015 26.0092632,10.4165791 25.9980791,10.2734775 C25.9870645,10.1308213 25.9279245,10.0169411 25.8206591,9.93217115 Z" id="Path"></path>
            </g>
        </g>
    </g>
</svg>