<?xml version="1.0" encoding="utf-8"?>
<!-- Generator: Adobe Illustrator 24.1.2, SVG Export Plug-In . SVG Version: 6.00 Build 0)  -->
<svg version="1.1" id="Layer_1" xmlns="http://www.w3.org/2000/svg" xmlns:xlink="http://www.w3.org/1999/xlink" x="0px" y="0px"
	 viewBox="0 0 19 18" style="enable-background:new 0 0 19 18;" xml:space="preserve">
<style type="text/css">
	.st0{fill:#647291;}
</style>
<g id="Page-1">
	<g id="project-individual-detailed-horizontal" transform="translate(-1323.000000, -1160.000000)">
		<g id="Sentry" transform="translate(397.000000, 1148.000000)">
			<g id="cta---view-on-sentry" transform="translate(788.000000, 0.000000)">
				<g id="popout-icon" transform="translate(139.000000, 13.000000)">
					<g id="Rectangle">
						<path class="st0" d="M9,17H3c-2.2,0-4-1.8-4-4V7c0-2.2,1.8-4,4-4h6c2.2,0,4,1.8,4,4v6C13,15.2,11.2,17,9,17z M3,5
							C1.9,5,1,5.9,1,7v6c0,1.1,0.9,2,2,2h6c1.1,0,2-0.9,2-2V7c0-1.1-0.9-2-2-2H3z"/>
					</g>
					<g id="Group-10" transform="translate(6.000000, 0.000000)">
						<g id="Path-4">
							<path class="st0" d="M0,12c-0.2,0-0.5-0.1-0.7-0.3c-0.4-0.4-0.4-1,0-1.4l10-10.5c0.4-0.4,1-0.4,1.4,0c0.4,0.4,0.4,1,0,1.4
								l-10,10.5C0.5,11.9,0.3,12,0,12z"/>
						</g>
						<g id="Path-5">
							<path class="st0" d="M10,1.5H4c-0.6,0-1-0.4-1-1s0.4-1,1-1h6c0.6,0,1,0.4,1,1S10.6,1.5,10,1.5z"/>
						</g>
						<g id="Path-6">
							<path class="st0" d="M10.4,8C10.4,8,10.4,8,10.4,8c-0.6,0-1-0.5-1-1l0.1-6.5c0-0.5,0.5-1,1-1c0,0,0,0,0,0c0.6,0,1,0.5,1,1
								L11.4,7C11.4,7.6,11,8,10.4,8z"/>
						</g>
					</g>
				</g>
			</g>
		</g>
	</g>
</g>
</svg>
